# xmcd
#
# Track frame offsets:
#	150
#	18387
#	35693
#	52738
#	68430
#	84816
#	102993
#	122438
#	139288
#	156217
#	174808
#	190600
#	208437
#	225579
#	239377
#	251892
#	270944
#	288385
#
# Disc length: 4047 seconds
#
# Revision: 3
# Processed by: cddbd v1.5.1PL0 Copyright (c) Steve Scherf et al.
# Submitted via: audiograbber 1.83.01
#
DISCID=eb0fcd12
DTITLE=2003-03 Country Radio - 2003-03 Country Radio
DYEAR=2003
DGENRE=Country
TTITLE0=Sara Evans - Backseat Of A Greyhound Bus
TTITLE1=Mark Wills - When You Think Of Me
TTITLE2=LeAnn Rimes - Suddenly
TTITLE3=Mark Chesnutt - Im In Love With A Married Woman
TTITLE4=Chad Brock - That Was Us
TTITLE5=Steve Holy - Rock A Bye Heart
TTITLE6=Marcel - Tennessee
TTITLE7=Kellie Coffey - Whatever It Takes
TTITLE8=Jimmy Wayne - Stay Gone
TTITLE9=Brett James - After All
TTITLE10=Amy Dalley - Love's Got An Attitude
TTITLE11=Rhett Atkins - In Your Love
TTITLE12=Ronnie Bowman - Rise Above
TTITLE13=Kaley - All I Ever Wanted
TTITLE14=John Conlee - She's Mine
TTITLE15=Amanda Dycus - Little House In The Country
TTITLE16=Blake Shelton - The Baby (Acoustic Remix)
TTITLE17=Jill King - One Mississippi
EXTD=
EXTT0=
EXTT1=
EXTT2=
EXTT3=
EXTT4=
EXTT5=
EXTT6=
EXTT7=
EXTT8=
EXTT9=
EXTT10=
EXTT11=
EXTT12=
EXTT13=
EXTT14=
EXTT15=
EXTT16=
EXTT17=
PLAYORDER=
